<?xml version="1.0" encoding="utf-8"?>
<!-- Generator: Adobe Illustrator 18.0.0, SVG Export Plug-In . SVG Version: 6.00 Build 0)  -->
<!DOCTYPE svg PUBLIC "-//W3C//DTD SVG 1.1//EN" "http://www.w3.org/Graphics/SVG/1.1/DTD/svg11.dtd">
<svg version="1.1" id="Layer_1" xmlns="http://www.w3.org/2000/svg" xmlns:xlink="http://www.w3.org/1999/xlink" x="0px" y="0px"
	 width="474.6px" height="181.6px" viewBox="61.6 329.1 474.6 181.6" enable-background="new 61.6 329.1 474.6 181.6"
	 xml:space="preserve">
<g>
	<g>
		<g>
			<g>
				<path fill="#0184BA" d="M369.5,510.7c-4.8,0-9.4-1.9-12.9-5.4L250.3,399.2c-0.8-0.8-2.2-0.2-2.2,1v92.5
					c0,6.7-5.5,12.1-12.1,12.1h-30.5c-4.9,0-9.2-2.9-11.1-7.4c-4.1-9.6-8-19.4-11.7-28.9c-1.3-3.2-2.5-6.5-3.8-9.7l-0.7-1.8
					c-8.5-21.5-17.3-43.8-26.3-65.4c-2.1-5-4.2-10.1-6.4-15.2c-0.4-1.1-2-1-2.5,0.1l0,0c-1.6,4-3.1,8.1-4.7,12
					c-0.9,2.2-1.8,4.4-2.6,6.7l-38.5,97.4c-3.7,9.4-14.3,14.1-23.8,10.3s-14.1-14.3-10.3-23.8l38.5-97.4c0.9-2.2,1.8-4.6,2.7-6.8
					c1.6-4,3.1-7.6,4.5-11.4c0.3-0.7,0.6-1.8,1-2.8c2.2-6.7,6.1-17.9,16.7-24.2c7.6-4.6,16.8-5.7,25.9-2.9
					c9.8,2.9,18.2,10,22.4,18.8c4,8.5,7.8,17.3,11,25.1c8,19.1,15.7,38.6,23.2,57.6c0.5,1.3,2.5,1,2.5-0.5v-81.8
					c0-7.4,4.5-14.1,11.3-16.9c6.9-2.8,14.7-1.3,20,4l106.2,106.2c0.8,0.8,2.2,0.2,2.2-1V341.2c0-6.7,5.5-12.1,12.1-12.1h105.6
					c36.2,0,52.1,14.9,59.1,27.4c12.9,23.1,9,51.3-9.7,70.2c-10.8,10.9-29.2,13.8-37.4,13.8h-49c-3.4,0-7.9-2.2-9.9-4.9
					c-11.5-15.1-1-31.7,13.5-31.7h45.6c3.7,0,9.6-1.7,11.5-3.1c0.1-0.1,0.1-0.1,0.2-0.2c7-7.2,8.4-17.5,3.5-26.2
					c-4.4-7.9-20.5-8.7-27.2-8.7h-79.7c-0.7,0-1.3,0.6-1.3,1.3v125.3c0,7.4-4.5,14.1-11.3,16.9C374.2,510.3,371.8,510.7,369.5,510.7
					"/>
			</g>
		</g>
		<g>
			<g>
				<defs>
					<path id="SVGID_1_" d="M126.3,456.6c0,10.2,8.2,18.5,18.5,18.5c10.2,0,18.5-8.2,18.5-18.5c0-10.2-8.2-18.5-18.5-18.5
						C134.6,438.1,126.3,446.4,126.3,456.6"/>
				</defs>
				<clipPath id="SVGID_2_">
					<use xlink:href="#SVGID_1_"  overflow="visible"/>
				</clipPath>
				<g clip-path="url(#SVGID_2_)">
					<g>
						<defs>
							<rect id="SVGID_3_" x="125.3" y="437.7" width="38" height="38"/>
						</defs>
						<clipPath id="SVGID_4_">
							<use xlink:href="#SVGID_3_"  overflow="visible"/>
						</clipPath>
						<rect x="125.3" y="437.7" clip-path="url(#SVGID_4_)" fill="#808080" width="38" height="38"/>
						<circle clip-path="url(#SVGID_4_)" fill="#808080" cx="144.4" cy="456.7" r="19"/>
						<circle clip-path="url(#SVGID_4_)" fill="#818181" cx="144.4" cy="456.7" r="18.9"/>
						<circle clip-path="url(#SVGID_4_)" fill="#828282" cx="144.4" cy="456.7" r="18.7"/>
						<circle clip-path="url(#SVGID_4_)" fill="#838383" cx="144.4" cy="456.7" r="18.6"/>
						<circle clip-path="url(#SVGID_4_)" fill="#848484" cx="144.4" cy="456.7" r="18.4"/>
						<circle clip-path="url(#SVGID_4_)" fill="#858585" cx="144.4" cy="456.7" r="18.3"/>
						<circle clip-path="url(#SVGID_4_)" fill="#868686" cx="144.4" cy="456.7" r="18.1"/>
						<circle clip-path="url(#SVGID_4_)" fill="#878787" cx="144.4" cy="456.7" r="18"/>
						<circle clip-path="url(#SVGID_4_)" fill="#888888" cx="144.4" cy="456.7" r="17.8"/>
						<circle clip-path="url(#SVGID_4_)" fill="#898989" cx="144.4" cy="456.7" r="17.7"/>
						<circle clip-path="url(#SVGID_4_)" fill="#8A8A8A" cx="144.4" cy="456.7" r="17.5"/>
						<circle clip-path="url(#SVGID_4_)" fill="#8B8B8B" cx="144.4" cy="456.7" r="17.4"/>
						<circle clip-path="url(#SVGID_4_)" fill="#8C8C8C" cx="144.4" cy="456.7" r="17.2"/>
						<circle clip-path="url(#SVGID_4_)" fill="#8D8D8D" cx="144.4" cy="456.7" r="17.1"/>
						<circle clip-path="url(#SVGID_4_)" fill="#8E8E8E" cx="144.4" cy="456.7" r="16.9"/>
						<circle clip-path="url(#SVGID_4_)" fill="#8F8F8F" cx="144.4" cy="456.7" r="16.8"/>
						<circle clip-path="url(#SVGID_4_)" fill="#909090" cx="144.4" cy="456.7" r="16.6"/>
						<circle clip-path="url(#SVGID_4_)" fill="#919191" cx="144.4" cy="456.7" r="16.5"/>
						<circle clip-path="url(#SVGID_4_)" fill="#929292" cx="144.4" cy="456.7" r="16.3"/>
						<circle clip-path="url(#SVGID_4_)" fill="#939393" cx="144.4" cy="456.7" r="16.2"/>
						<circle clip-path="url(#SVGID_4_)" fill="#949494" cx="144.4" cy="456.7" r="16"/>
						<circle clip-path="url(#SVGID_4_)" fill="#959595" cx="144.4" cy="456.7" r="15.9"/>
						<circle clip-path="url(#SVGID_4_)" fill="#969696" cx="144.4" cy="456.7" r="15.7"/>
						<circle clip-path="url(#SVGID_4_)" fill="#979797" cx="144.4" cy="456.7" r="15.6"/>
						<circle clip-path="url(#SVGID_4_)" fill="#989898" cx="144.4" cy="456.7" r="15.4"/>
						<circle clip-path="url(#SVGID_4_)" fill="#999999" cx="144.4" cy="456.7" r="15.3"/>
						<circle clip-path="url(#SVGID_4_)" fill="#9A9A9A" cx="144.4" cy="456.7" r="15.1"/>
						<circle clip-path="url(#SVGID_4_)" fill="#9B9B9B" cx="144.4" cy="456.7" r="15"/>
						<circle clip-path="url(#SVGID_4_)" fill="#9C9C9C" cx="144.4" cy="456.7" r="14.8"/>
						<circle clip-path="url(#SVGID_4_)" fill="#9D9D9D" cx="144.4" cy="456.7" r="14.7"/>
						<circle clip-path="url(#SVGID_4_)" fill="#9E9E9E" cx="144.4" cy="456.7" r="14.5"/>
						<circle clip-path="url(#SVGID_4_)" fill="#9F9F9F" cx="144.4" cy="456.7" r="14.4"/>
						<circle clip-path="url(#SVGID_4_)" fill="#A0A0A0" cx="144.4" cy="456.7" r="14.2"/>
						<circle clip-path="url(#SVGID_4_)" fill="#A1A1A1" cx="144.4" cy="456.7" r="14.1"/>
						<circle clip-path="url(#SVGID_4_)" fill="#A2A2A2" cx="144.4" cy="456.7" r="13.9"/>
						<circle clip-path="url(#SVGID_4_)" fill="#A3A3A3" cx="144.4" cy="456.7" r="13.8"/>
						<circle clip-path="url(#SVGID_4_)" fill="#A4A4A4" cx="144.4" cy="456.7" r="13.6"/>
						<circle clip-path="url(#SVGID_4_)" fill="#A5A5A5" cx="144.4" cy="456.7" r="13.5"/>
						<circle clip-path="url(#SVGID_4_)" fill="#A6A6A6" cx="144.4" cy="456.7" r="13.3"/>
						<circle clip-path="url(#SVGID_4_)" fill="#A7A7A7" cx="144.4" cy="456.7" r="13.2"/>
						<circle clip-path="url(#SVGID_4_)" fill="#A8A8A8" cx="144.4" cy="456.7" r="13"/>
						<circle clip-path="url(#SVGID_4_)" fill="#A9A9A9" cx="144.4" cy="456.7" r="12.9"/>
						<circle clip-path="url(#SVGID_4_)" fill="#AAAAAA" cx="144.4" cy="456.7" r="12.7"/>
						<circle clip-path="url(#SVGID_4_)" fill="#ABABAB" cx="144.4" cy="456.7" r="12.6"/>
						<circle clip-path="url(#SVGID_4_)" fill="#ACACAC" cx="144.4" cy="456.7" r="12.4"/>
						<circle clip-path="url(#SVGID_4_)" fill="#ADADAD" cx="144.4" cy="456.7" r="12.3"/>
						<circle clip-path="url(#SVGID_4_)" fill="#AEAEAE" cx="144.4" cy="456.7" r="12.1"/>
						<circle clip-path="url(#SVGID_4_)" fill="#AFAFAF" cx="144.4" cy="456.7" r="12"/>
						<circle clip-path="url(#SVGID_4_)" fill="#B0B0B0" cx="144.4" cy="456.7" r="11.8"/>
						<circle clip-path="url(#SVGID_4_)" fill="#B1B1B1" cx="144.4" cy="456.7" r="11.7"/>
						<circle clip-path="url(#SVGID_4_)" fill="#B2B2B2" cx="144.4" cy="456.7" r="11.5"/>
						<circle clip-path="url(#SVGID_4_)" fill="#B3B3B3" cx="144.4" cy="456.7" r="11.4"/>
						<circle clip-path="url(#SVGID_4_)" fill="#B4B4B4" cx="144.4" cy="456.7" r="11.2"/>
						<circle clip-path="url(#SVGID_4_)" fill="#B5B5B5" cx="144.4" cy="456.7" r="11.1"/>
						<circle clip-path="url(#SVGID_4_)" fill="#B6B6B6" cx="144.4" cy="456.7" r="10.9"/>
						<circle clip-path="url(#SVGID_4_)" fill="#B7B7B7" cx="144.4" cy="456.7" r="10.8"/>
						<circle clip-path="url(#SVGID_4_)" fill="#B8B8B8" cx="144.4" cy="456.7" r="10.6"/>
						<circle clip-path="url(#SVGID_4_)" fill="#B9B9B9" cx="144.4" cy="456.7" r="10.5"/>
						<circle clip-path="url(#SVGID_4_)" fill="#BABABA" cx="144.4" cy="456.7" r="10.3"/>
						<circle clip-path="url(#SVGID_4_)" fill="#BBBBBB" cx="144.4" cy="456.7" r="10.2"/>
						<circle clip-path="url(#SVGID_4_)" fill="#BCBCBC" cx="144.4" cy="456.7" r="10"/>
						<circle clip-path="url(#SVGID_4_)" fill="#BDBDBD" cx="144.4" cy="456.7" r="9.9"/>
						<circle clip-path="url(#SVGID_4_)" fill="#BEBEBE" cx="144.4" cy="456.7" r="9.7"/>
						<circle clip-path="url(#SVGID_4_)" fill="#C0C0C0" cx="144.4" cy="456.7" r="9.6"/>
						<circle clip-path="url(#SVGID_4_)" fill="#C1C1C1" cx="144.4" cy="456.7" r="9.4"/>
						<circle clip-path="url(#SVGID_4_)" fill="#C2C2C2" cx="144.4" cy="456.7" r="9.3"/>
						<circle clip-path="url(#SVGID_4_)" fill="#C3C3C3" cx="144.4" cy="456.7" r="9.1"/>
						<circle clip-path="url(#SVGID_4_)" fill="#C4C4C4" cx="144.4" cy="456.7" r="9"/>
						<circle clip-path="url(#SVGID_4_)" fill="#C5C5C5" cx="144.4" cy="456.7" r="8.8"/>
						<circle clip-path="url(#SVGID_4_)" fill="#C6C6C6" cx="144.4" cy="456.7" r="8.7"/>
						<circle clip-path="url(#SVGID_4_)" fill="#C7C7C7" cx="144.4" cy="456.7" r="8.5"/>
						<circle clip-path="url(#SVGID_4_)" fill="#C8C8C8" cx="144.4" cy="456.7" r="8.4"/>
						<circle clip-path="url(#SVGID_4_)" fill="#C9C9C9" cx="144.4" cy="456.7" r="8.2"/>
						<circle clip-path="url(#SVGID_4_)" fill="#CACACA" cx="144.4" cy="456.7" r="8.1"/>
						<circle clip-path="url(#SVGID_4_)" fill="#CBCBCB" cx="144.4" cy="456.7" r="7.9"/>
						<circle clip-path="url(#SVGID_4_)" fill="#CCCCCC" cx="144.4" cy="456.7" r="7.8"/>
						<circle clip-path="url(#SVGID_4_)" fill="#CDCDCD" cx="144.4" cy="456.7" r="7.6"/>
						<circle clip-path="url(#SVGID_4_)" fill="#CECECE" cx="144.4" cy="456.7" r="7.5"/>
						<circle clip-path="url(#SVGID_4_)" fill="#CFCFCF" cx="144.4" cy="456.7" r="7.3"/>
						<circle clip-path="url(#SVGID_4_)" fill="#D0D0D0" cx="144.4" cy="456.7" r="7.2"/>
						<circle clip-path="url(#SVGID_4_)" fill="#D1D1D1" cx="144.4" cy="456.7" r="7"/>
						<circle clip-path="url(#SVGID_4_)" fill="#D2D2D2" cx="144.4" cy="456.7" r="6.9"/>
						<circle clip-path="url(#SVGID_4_)" fill="#D3D3D3" cx="144.4" cy="456.7" r="6.7"/>
						<circle clip-path="url(#SVGID_4_)" fill="#D4D4D4" cx="144.4" cy="456.7" r="6.6"/>
						<circle clip-path="url(#SVGID_4_)" fill="#D5D5D5" cx="144.4" cy="456.7" r="6.4"/>
						<circle clip-path="url(#SVGID_4_)" fill="#D6D6D6" cx="144.4" cy="456.7" r="6.3"/>
						<circle clip-path="url(#SVGID_4_)" fill="#D7D7D7" cx="144.4" cy="456.7" r="6.1"/>
						<circle clip-path="url(#SVGID_4_)" fill="#D8D8D8" cx="144.4" cy="456.7" r="6"/>
						<circle clip-path="url(#SVGID_4_)" fill="#D9D9D9" cx="144.4" cy="456.7" r="5.8"/>
						<circle clip-path="url(#SVGID_4_)" fill="#DADADA" cx="144.4" cy="456.7" r="5.7"/>
						<circle clip-path="url(#SVGID_4_)" fill="#DBDBDB" cx="144.4" cy="456.7" r="5.5"/>
						<circle clip-path="url(#SVGID_4_)" fill="#DCDCDC" cx="144.4" cy="456.7" r="5.4"/>
						<circle clip-path="url(#SVGID_4_)" fill="#DDDDDD" cx="144.4" cy="456.7" r="5.2"/>
						<circle clip-path="url(#SVGID_4_)" fill="#DEDEDE" cx="144.4" cy="456.7" r="5.1"/>
						<circle clip-path="url(#SVGID_4_)" fill="#DFDFDF" cx="144.4" cy="456.7" r="4.9"/>
						<circle clip-path="url(#SVGID_4_)" fill="#E0E0E0" cx="144.4" cy="456.7" r="4.8"/>
						<circle clip-path="url(#SVGID_4_)" fill="#E1E1E1" cx="144.4" cy="456.7" r="4.6"/>
						<circle clip-path="url(#SVGID_4_)" fill="#E2E2E2" cx="144.4" cy="456.7" r="4.5"/>
						<circle clip-path="url(#SVGID_4_)" fill="#E3E3E3" cx="144.4" cy="456.7" r="4.3"/>
						<circle clip-path="url(#SVGID_4_)" fill="#E4E4E4" cx="144.4" cy="456.7" r="4.2"/>
						<circle clip-path="url(#SVGID_4_)" fill="#E5E5E5" cx="144.4" cy="456.7" r="4"/>
						<circle clip-path="url(#SVGID_4_)" fill="#E6E6E6" cx="144.4" cy="456.7" r="3.9"/>
						<circle clip-path="url(#SVGID_4_)" fill="#E7E7E7" cx="144.4" cy="456.7" r="3.7"/>
						<circle clip-path="url(#SVGID_4_)" fill="#E8E8E8" cx="144.4" cy="456.7" r="3.6"/>
						<circle clip-path="url(#SVGID_4_)" fill="#E9E9E9" cx="144.4" cy="456.7" r="3.4"/>
						<circle clip-path="url(#SVGID_4_)" fill="#EAEAEA" cx="144.4" cy="456.7" r="3.3"/>
						<circle clip-path="url(#SVGID_4_)" fill="#EBEBEB" cx="144.4" cy="456.7" r="3.1"/>
						<circle clip-path="url(#SVGID_4_)" fill="#ECECEC" cx="144.4" cy="456.7" r="3"/>
						<circle clip-path="url(#SVGID_4_)" fill="#EDEDED" cx="144.4" cy="456.7" r="2.8"/>
						<circle clip-path="url(#SVGID_4_)" fill="#EEEEEE" cx="144.4" cy="456.7" r="2.7"/>
						<circle clip-path="url(#SVGID_4_)" fill="#EFEFEF" cx="144.4" cy="456.7" r="2.5"/>
						<circle clip-path="url(#SVGID_4_)" fill="#F0F0F0" cx="144.4" cy="456.7" r="2.4"/>
						<circle clip-path="url(#SVGID_4_)" fill="#F1F1F1" cx="144.4" cy="456.7" r="2.2"/>
						<circle clip-path="url(#SVGID_4_)" fill="#F2F2F2" cx="144.4" cy="456.7" r="2.1"/>
						<circle clip-path="url(#SVGID_4_)" fill="#F3F3F3" cx="144.4" cy="456.7" r="1.9"/>
						<circle clip-path="url(#SVGID_4_)" fill="#F4F4F4" cx="144.4" cy="456.7" r="1.8"/>
						<circle clip-path="url(#SVGID_4_)" fill="#F5F5F5" cx="144.4" cy="456.7" r="1.6"/>
						<circle clip-path="url(#SVGID_4_)" fill="#F6F6F6" cx="144.4" cy="456.7" r="1.5"/>
						<circle clip-path="url(#SVGID_4_)" fill="#F7F7F7" cx="144.4" cy="456.7" r="1.3"/>
						<circle clip-path="url(#SVGID_4_)" fill="#F8F8F8" cx="144.4" cy="456.7" r="1.2"/>
						<circle clip-path="url(#SVGID_4_)" fill="#F9F9F9" cx="144.4" cy="456.7" r="1"/>
						<circle clip-path="url(#SVGID_4_)" fill="#FAFAFA" cx="144.4" cy="456.7" r="0.9"/>
						<circle clip-path="url(#SVGID_4_)" fill="#FBFBFB" cx="144.4" cy="456.7" r="0.7"/>
						<circle clip-path="url(#SVGID_4_)" fill="#FCFCFC" cx="144.4" cy="456.7" r="0.6"/>
						<circle clip-path="url(#SVGID_4_)" fill="#FDFDFD" cx="144.4" cy="456.7" r="0.4"/>
						<circle clip-path="url(#SVGID_4_)" fill="#FEFEFE" cx="144.4" cy="456.7" r="0.3"/>
						<circle clip-path="url(#SVGID_4_)" fill="#FFFFFF" cx="144.4" cy="456.7" r="0.1"/>
					</g>
				</g>
			</g>
		</g>
	</g>
	<g>
		
			<image overflow="visible" enable-background="new    " width="635" height="243" xlink:href="92948503.png"  transform="matrix(0.7474 0 0 0.7474 61.6351 329.1216)">
		</image>
	</g>
</g>
</svg>
